# xmcd
#
# Track frame offsets: 
#        150
#        17075
#        31290
#        51770
#        69080
#        88117
#        106190
#        117630
#        134632
#        155482
#        174997
#        189230
#        206752
#        224832
#
# Disc length: 3200 seconds
#
# Revision: 5
# Processed by: cddbd v1.5.1PL0 Copyright (c) Steve Scherf et al.
# Submitted via: ExactAudioCopy v0.95a5
#
DISCID=c80c7e0e
DTITLE=Various Artist - Every Woman's Blues: The Best of the New Gene
DTITLE=ration
DYEAR=1998
DGENRE=Blues
TTITLE0=Rory Block - Gone Woman Blues
TTITLE1=Sue Foley - Put Your Money Where Your Mouth Is
TTITLE2=Lady Bianca - Ooh, His Love Is So Good
TTITLE3=Debbie Davies - Livin' On Lies
TTITLE4=Deborah Coleman - Roll With Me
TTITLE5=Deanna Bogart - Checks and Love Letters
TTITLE6=Alicia - Love Me Like a Guitar
TTITLE7=Zakiya Hooker - Baby You Busted
TTITLE8=B. B. Queen - Talk To the Hand
TTITLE9=Sarah Brown - Devil's Best Disguise
TTITLE10=Liz Mandeville Greeson - Look At Me Look At Me
TTITLE11=Joanna Connor - When You're Being Nice
TTITLE12=Saffire - Don't You Tell Me
TTITLE13=Lucinda Williams with Taj Mahal - Going Back Home
EXTD=LABEL =Shanachie\nID =Shanachie-9009\nUPC =016351-900920\nCOPY
EXTD=RIGHT =none
EXTT0=Rory Block
EXTT1=Sue Foley
EXTT2=Lady Bianca
EXTT3=Debbie Davies
EXTT4=Deborah Coleman
EXTT5=Deanna Bogart
EXTT6=Alicia [aka - Alicia Levy]
EXTT7=Zakiya Hooker
EXTT8=BB Queen
EXTT9=Sarah Brown
EXTT10=Liz Mandeville Greeson
EXTT11=Joanna Connor
EXTT12=Saffire
EXTT13=Lucinda Williams with Taj Mahal
PLAYORDER=
